<svg width="456" height="417" fill="none" xmlns="http://www.w3.org/2000/svg"><path d="M133.073 28.813c-13.864 19.889 2.392 52.134-18.18 67.093-20.025 14.56-44.624-9.307-63.496 3.227C23.4 117.726 28.513 202.805 69.445 255.667c12.309 15.897 22.594 22.082 27.15 40.061 9.781 38.606-24.596 61.571-18.054 80.664 14.73 42.992 241.267 79.067 332.163-50.137 42.453-60.344 48.805-147.482 10.875-213.663C353.04-6.996 164.181-15.815 133.073 28.812z" fill="#F2F4F4"/><path d="M290.335 360.063c28.4.192 64.608-3.623 99.285-19.342 8.85-4.011 63.519-28.792 57.062-53.744-2.274-8.79-10.212-10.178-13.458-21.876-3.846-13.862 4.837-20.786 10.857-38.062 3.591-10.308 14.103-40.475-3.932-57.179-10.778-9.981-31.261-14.703-46.852-11.055-22.869 5.35-30.731 27.658-43.383 65.633-11.216 33.664-8.334 41.928-16.832 66.028-6.307 17.886-18.183 42.512-42.747 69.597z" fill="#B3CEE0"/><path opacity=".5" d="M218.991 375.6c-16.448 0-33.28-2.28-50.361-6.838l.344-1.299c31.08 8.292 61.321 8.995 89.886 2.089 38.049-9.199 71.055-32.043 98.099-67.895 28.172-37.347 42.82-79.45 50.147-108.194 5.07-19.888 4.091-41.911-2.909-65.458l1.285-.384c7.071 23.784 8.055 46.048 2.923 66.175-7.357 28.863-22.069 71.147-50.375 108.672-27.236 36.107-60.496 59.117-98.856 68.391a170.51 170.51 0 01-40.183 4.741z" fill="#fff"/><path opacity=".5" d="M387.91 250.897l-.379-.47c-.08-.099-8.058-10.061-14.502-25.266-5.955-14.052-11.791-35.596-5.781-58.438l1.297.343c-10.647 40.464 16.156 77.44 19.658 82.038 60.117-39.223 59.522-84.04 57.898-96.87a7.352 7.352 0 01-.066-.652l.671.006.67-.005c.004.074.025.236.057.482 1.652 13.063 2.281 58.774-59.017 98.503l-.506.329z" fill="#fff"/><path opacity=".5" d="M380.953 303.863a158.329 158.329 0 01-23.087-1.761l-.355-.052-.153-.325c-.165-.347-16.401-35.286-12.84-82.786l3.59-47.871 1.338.101-3.59 47.871c-3.351 44.696 10.944 78.158 12.566 81.785 20.315 2.948 49.575 3.435 74.337-10.741 14.887-8.523 21.161-18.457 21.223-18.557l1.139.709c-.256.416-6.47 10.276-21.62 18.971-10.823 6.212-27.977 12.656-52.548 12.656z" fill="#fff"/><path d="M262.171 283.198c-22.312 20.985-53.723 44.527-92.622 57.534-9.927 3.32-71.252 23.827-84.378-.64-4.624-8.619.638-15.539-5.343-27.17-7.088-13.782-19.011-12.888-36.392-22.133-10.37-5.516-40.721-21.66-38.667-48.097 1.227-15.798 13.97-34.557 28.961-43.109 21.989-12.544 44.503-.672 82.25 20.076 33.462 18.392 37.222 27.04 61.548 39.863 18.054 9.516 45.435 20.277 84.643 23.676z" fill="#CFE0ED"/><path opacity=".5" d="M244.401 301.083c-19.005 0-38.709-2.868-59.112-8.604-48.657-13.705-88.754-40.364-113.822-60.314-17.46-13.897-31.072-33.613-40.456-58.601l.95-.359c9.318 24.814 22.822 44.382 40.138 58.163 24.995 19.893 64.97 46.473 113.465 60.131 46.571 13.117 89.797 11.16 128.477-5.816 29.035-12.742 54.557-33.118 75.855-60.559l.802.624c-21.404 27.577-47.058 48.056-76.249 60.867-21.968 9.641-45.394 14.468-70.048 14.468z" fill="#fff"/><path opacity=".5" d="M109.871 268.383c-66.712 0-92.401-35.063-98.976-46.479-.141-.246-.231-.406-.276-.468l.805-.62c.127.186.244.38.35.579 6.973 12.108 35.712 51.101 113.079 45.405.022-2.51-.086-15.044-3.964-30.383-3.983-15.75-12.871-37.769-32.599-53.223l.626-.801c19.963 15.638 28.945 37.89 32.964 53.803 4.352 17.228 3.985 30.956 3.981 31.093l-.015.457-.455.034c-5.401.41-10.574.61-15.52.603z" fill="#fff"/><path opacity=".5" d="M173.962 303.2c-76.294 18.686-115.478-14.218-126.19-25.432-.23-.242-.377-.4-.446-.458l.747-.935c.198.178.386.366.563.565 11.36 11.893 55.131 48.438 142.018 20.254-.677-2.876-4.305-17.181-13.03-33.637-8.959-16.897-25.281-39.589-52.164-51.737l.491-1.092c27.204 12.292 43.698 35.225 52.745 52.299 9.794 18.483 13.213 34.286 13.247 34.444l.112.526-.511.167c-6.063 1.981-11.923 3.659-17.582 5.036z" fill="#fff"/><path d="M286.172 300.159c-16.496-10.199-39.067-27.625-53.412-55.848-18.813-37.013-6.946-60.078-22.227-126.123-9.663-41.76-16.826-70.806-41.132-82.165-19.049-8.901-46.344-5.876-60.298 8.823C97.501 57.068 93.765 78.79 94.296 93.643c.432 12.106 3.722 20.288-1.76 27.83-5.603 7.707-13.758 5.654-19.245 11.636-11.13 12.13 2.798 41.95 5.05 46.77 25.039 53.611 84.604 81.063 110.73 92.724 21.602 9.642 54.433 21.665 97.101 27.556z" fill="#FEB58A"/><path opacity=".5" d="M304.128 307.27c-26.01-4.269-49.017-10.998-68.381-19.998-28.659-13.322-48.474-31.298-58.896-53.429-8.151-17.31-10.511-37.394-13.498-62.821-2.477-21.079-2.335-36.229-2.209-49.596.162-17.329.29-31.017-5.501-49.592-5.885-18.871-16.122-36.742-30.426-53.115l.763-.67c14.399 16.48 24.705 34.474 30.631 53.481 5.839 18.728 5.71 32.487 5.547 49.905-.125 13.337-.266 28.453 2.203 49.468 3.093 26.325 5.327 45.346 13.408 62.506 10.318 21.91 29.968 39.721 58.405 52.94 19.281 8.962 42.199 15.663 68.118 19.917l-.164 1.004z" fill="#fff"/><path opacity=".5" d="M162.211 156.054l-.27-.507c-18.77-35.237-43.561-54.622-61.053-64.68C81.95 79.98 67.286 77.388 67.141 77.363l.17-1.003c.148.025 14.99 2.649 34.082 13.626 17.521 10.074 42.317 29.442 61.167 64.564 2.345-1.768 13.167-10.372 22.713-25.302 9.884-15.459 20.384-41.067 14.274-75.267l1-.18c6.171 34.545-4.448 60.414-14.443 76.033-10.829 16.922-23.298 25.803-23.423 25.89l-.47.331z" fill="#fff"/><path opacity=".5" d="M170.398 212.662l-.368-.031c-24.01-2.043-53.519-28.242-74.046-49.861-22.2-23.379-38.97-46.58-39.136-46.811l.823-.596c.166.231 16.903 23.384 39.056 46.714 20.299 21.377 49.399 47.258 73.024 49.507 1.257-2.921 10.473-23.945 23.575-43.382 14.11-20.934 53.944-35.296 54.345-35.439l.34.959c-.398.141-39.921 14.394-53.844 35.049-13.99 20.756-23.531 43.325-23.626 43.55l-.143.341z" fill="#fff"/><path d="M227.363 257.611a282.007 282.007 0 01-37.488-2.575c-26.423-3.588-64.97-12.774-98.554-36.157l-64.854-45.154.579-.836L91.9 218.044c33.41 23.261 71.78 32.405 98.086 35.98 24.973 3.394 44.092 2.548 48.598 2.274-7.868-9.232-12.158-19.67-12.751-31.04-.487-9.337 1.505-19.311 5.92-29.645 7.502-17.558 19.588-30.262 19.709-30.388l.732.705c-.12.125-12.093 12.715-19.518 30.108-4.349 10.187-6.31 20.005-5.828 29.181.601 11.45 5.032 21.94 13.17 31.181l.669.76-1.008.083c-.097.008-4.635.368-12.316.368z" fill="#fff" opacity=".5"/><path d="M287.83 293.451c-1.843-2.511-12.93-17.141-30.478-17.75-14.69-.51-25.924 9.084-28.526 11.306-10.479 8.948-9.268 16.086-17.732 18.983-10.051 3.441-17.265-4.739-23.764-.017-4.484 3.258-5.798 10.599-3.98 15.718 3.191 8.986 16.789 13.268 27.102 11.119 14.207-2.959 14.528-16.531 30.66-20.891 9.374-2.533 12.105 1.283 22.076-1.166 11.58-2.842 19.616-10.865 24.642-17.302z" fill="url(#paint0_linear_2127_498)"/><g style="mix-blend-mode:soft-light" opacity=".5" fill="#fff"><path d="M207.127 319.519c-8.716 0-19.33-4.357-31.69-13.03l.291-.417c16.558 11.618 29.912 15.438 39.691 11.357 6.163-2.572 9.216-7.422 12.449-12.556 3.637-5.778 7.398-11.752 15.933-14.604 6.564-2.192 14.165-1.143 29.31.949a190.02 190.02 0 0122.478 4.502l-.13.492a189.353 189.353 0 00-22.417-4.49c-15.067-2.081-22.63-3.125-29.08-.97-8.363 2.794-12.075 8.69-15.665 14.392-3.276 5.205-6.372 10.121-12.683 12.755-2.589 1.08-5.419 1.62-8.487 1.62z" opacity=".5"/><path d="M189.783 334.246l-.115-.496c17.988-4.184 22.87-14.324 23.304-15.308-1.614-5.57-6.326-10.278-10.005-13.253a52.824 52.824 0 00-7.75-5.214l.235-.452c.148.078 14.923 7.903 18.033 18.866l.024.082-.032.08c-.044.112-4.616 11.257-23.694 15.695zm40.937-5.834c-1.809-5.448-.174-13.513 4.857-23.969a117.619 117.619 0 017.965-13.886c-8.124-6.634-27.991 9.119-28.192 9.28l-.317-.397c.052-.041 5.196-4.141 11.287-7.301 8.249-4.28 14.214-4.892 17.729-1.819l.171.149-.13.187c-.172.248-17.107 24.884-12.888 37.596l-.482.16z" opacity=".5"/><path d="M248.323 320.811c-4.786-18.403 19.831-28.557 22.77-29.696-8.444-14.593-29.534-17.355-29.747-17.381l.062-.505c.217.026 21.806 2.856 30.274 17.894l.148.263-.283.101c-.278.1-27.678 10.181-22.734 29.196l-.49.128z" opacity=".5"/></g><path d="M369.478 54.409c-2.751-8.924-7.047-13.24-10.32-15.52-7.013-4.888-16.518-5.446-16.253-7.319.115-.812 1.995-1.366 2.557-1.531 2.752-.811 4.292.582 5.823-.335 1.142-.684 1.451-2.156 1.678-3.31 1.147-5.836-2.215-13.02-4.002-18.286-.124-.367-.405-1.214-.129-1.415.298-.216 1.089.43 1.356.647 2.843 2.321 6.393 12.682 6.389 12.683-.001 0 .005-1.188-1.065-4.568-1.863-5.89-3.888-8.622-3.711-13.293.035-.913.072-1.734.388-1.827 1.595-.474 7.328 18.559 8.388 18.207.266-.088.118-1.357.044-1.99-.69-5.902-3.932-7.665-3.657-12.436.043-.75.107-1.846.516-1.961 1.376-.39 5.026 10.735 6.838 15.824a243.378 243.378 0 019.019 32.346l-3.859 4.084z" fill="#FEB3B1"/><path d="M252.259 39.999c-5.072-1.588-6.433-7.471-6.971-9.796-1.271-5.497-.778-14.988 4.968-17.62 4.615-2.114 9.772 1.505 10.411 1.967 6.503 4.702 5.282 13.71 5.139 14.652-.321 2.111-.982 6.468-4.805 9.176-.27.19-4.356 2.994-8.742 1.62z" fill="#424242"/><path style="mix-blend-mode:multiply" opacity=".3" d="M258.979 26.469c-3.362-3.339-8.114-1.878-10.118-4.916-1.001-1.518-1.258-4.078.762-8.635-5.145 3.02-5.557 11.998-4.334 17.285.537 2.325 1.898 8.208 6.97 9.796 4.386 1.373 8.473-1.43 8.742-1.621.168-.12.328-.242.484-.367.561-4.37.24-8.815-2.506-11.542z" fill="url(#paint1_linear_2127_498)"/><path d="M248.25 156.985s-20.413-63.62-20.344-87.556c.069-23.935 20.902-33.237 30.152-35.45 9.245-2.21 28.857.222 34.894 27.167 6.034 26.937 1.678 87.331 1.678 87.331l-46.38 8.508z" fill="#424242"/><path d="M265.195 92.928c14.706-1.802 17.965-15.716 31.484-17.325a20.408 20.408 0 014.41-.043 149.19 149.19 0 00-.765-7.578 20.46 20.46 0 00-4.941-.016c-13.519 1.606-16.779 15.52-31.486 17.319-11.995 1.468-17.346-6.865-27.497-3.239-2.614.934-4.824 2.404-6.685 4.106.422 2.42.91 4.935 1.449 7.514a19.696 19.696 0 016.536-3.971c10.15-3.628 15.5 4.703 27.495 3.233z" fill="#37383A" opacity=".3"/><path style="mix-blend-mode:multiply" opacity=".8" d="M266.451 117.321c-11 1.261-16.031-7.136-25.305-3.692a16.444 16.444 0 00-4.648 2.691c5.554 21.35 11.751 40.664 11.751 40.664l46.38-8.507s1.707-23.667 1.504-47.975c-.341.018-.672.045-.992.081-12.4 1.374-15.203 15.191-28.69 16.738z" fill="#979797"/><path style="mix-blend-mode:multiply" opacity=".3" d="M291.109 76.811c-12.403 1.367-15.206 15.184-28.696 16.722-11.003 1.254-16.034-7.146-25.31-3.707-2.326.862-4.293 2.237-5.952 3.844 1.501 7.295 3.384 15.099 5.348 22.649a16.47 16.47 0 014.649-2.69c9.274-3.444 14.304 4.953 25.304 3.691 13.487-1.546 16.291-15.363 28.691-16.738.319-.035-2.833-23.903-4.034-23.77z" fill="#515356"/><path d="M185.987 202.071c-8.949-11.684 3.365-38.136 16.882-53.039 15.725-17.338 35.857-22.11 48.63-24.959 42.278-9.43 55.842 9.737 77.182-1.257 33.103-17.054 25.839-76.326 40.797-77.963 12.282-1.345 31.634 37.054 26.291 75.135-4.146 29.548-32.189 58.614-60.501 71.555-20.54 9.389-17.421 6.896-64.189 9.604-54.211 3.138-76.27 12.441-85.092.924z" fill="#EE6E23"/><path d="M236.816 127.75c8.677-3.133 22.864-3.841 22.715-34.914 0 0 17.973-1.14 18.655-.914.644.213-4.762 31.037 20.355 30.827 1.708-.014 2.157 2.392.786 3.481-4.542 3.606-14.786 9.19-29.955 9.367-9.601.112-20.554 2.269-32.607-4.09-1.651-.871-1.77-3.099.051-3.757z" fill="#FEAEAB"/><path d="M298.313 186.503c-5.086.064-3.322-43.005-18.536-106.233a537.886 537.886 0 00-8.441-30.992l16.22-2.08c9.395 18.093 23.387 51.763 20.723 95.391-1.253 20.513-6.225 43.867-9.966 43.914z" fill="url(#paint2_linear_2127_498)"/><path d="M298.313 186.503c-5.086.064-3.322-43.005-18.536-106.233a537.886 537.886 0 00-8.441-30.992l16.22-2.08c9.395 18.093 23.387 51.763 20.723 95.391-1.253 20.513-6.225 43.867-9.966 43.914z" fill="#424242"/><path d="M241.833 74.575c.688 4.05 3.869 34.097 26.729 29.131 20.878-4.535 15.382-25.778 12.929-36.508 0 0-2.61-9.555-10.114-10.807 0 0 7.456 4.17 9.402 16.25 0 0-2.713-6.082-18.067-2.984-15.366 3.1-17.402 10.662-17.402 10.662s-4.682-11.031 2.094-18.75c0 0-5.242 2.9-5.571 13.006z" fill="#FC9F9D"/><path style="mix-blend-mode:multiply" opacity=".3" d="M390.735 71.639c2.863 16.653-.208 27.409-4.687 34.649-10.085 16.304-27.916 15.804-49.869 41.539-12.289 14.406-13.086 22.047-20.725 33.101-3.507 5.074-8.089 10.335-14.21 15.412 16.502.461 19.693 1.754 34.024-4.797 28.312-12.941 56.355-42.007 60.5-71.555 2.428-17.304-.243-34.673-5.033-48.35z" fill="#848484"/><path d="M396.045 199.468l-288.042-9.958a10.755 10.755 0 00-10.272 6.563 10.795 10.795 0 00-.855 4.21v186.04a10.801 10.801 0 003.441 7.902 10.752 10.752 0 003.763 2.273c1.398.489 2.881.685 4.357.574l288.042-21.656a10.752 10.752 0 007.08-3.418 10.79 10.79 0 002.871-7.332V210.241c0-2.794-1.083-5.48-3.02-7.49a10.748 10.748 0 00-7.365-3.283z" fill="#737373"/><path d="M400.996 199.468l-288.042-9.958a10.755 10.755 0 00-10.272 6.563 10.795 10.795 0 00-.855 4.21v186.04a10.803 10.803 0 003.441 7.902 10.747 10.747 0 008.12 2.847l288.042-21.656a10.75 10.75 0 007.08-3.418 10.792 10.792 0 002.872-7.332V210.241c0-2.794-1.083-5.48-3.021-7.49a10.748 10.748 0 00-7.365-3.283z" fill="url(#paint3_linear_2127_498)"/><path d="M287.909 302.92l120.695-99.894a10.718 10.718 0 00-7.608-3.559l-288.041-9.958a10.69 10.69 0 00-7.222 2.466L267.084 303.81a17.243 17.243 0 0020.825-.89z" fill="#8A8A8A"/><path d="M287.909 302.922a17.248 17.248 0 01-20.825.89L105.733 191.977a10.764 10.764 0 00-3.906 8.306v186.04a10.803 10.803 0 003.441 7.902 10.73 10.73 0 003.764 2.272c1.397.49 2.88.686 4.356.575l288.042-21.657a10.744 10.744 0 007.08-3.417 10.796 10.796 0 002.872-7.332V210.241c0-2.667-.99-5.238-2.778-7.213l-120.695 99.894z" fill="#D2D2D2"/><path d="M408.604 203.028l-120.695 99.894a17.248 17.248 0 01-20.825.89L105.733 191.977a10.764 10.764 0 00-3.906 8.306v27.437c5.83-2.455 10.763-2.926 14.772-2.59 11.085.928 13.732 7.863 34.958 17.873 19.846 9.361 21.928 5.371 30.677 12.154 16.855 13.069 9.484 28.152 24.256 42.182 15.383 14.61 28.656 3.27 50.653 17.159 23.245 14.677 15.804 32 34.958 42.182 26.835 14.265 54.238-12.935 77.049 1.429 6.897 4.344 11.307 11.188 14.15 18.67l18.13-1.364a10.744 10.744 0 007.08-3.417 10.798 10.798 0 002.872-7.332V210.241c0-2.667-.99-5.238-2.778-7.213z" fill="#fff" fill-opacity=".78" style="mix-blend-mode:multiply" opacity=".37"/><path style="mix-blend-mode:multiply" opacity=".3" d="M131.26 227.613v168.114l19.906 18.151 37.338-29.961-57.244-156.304z" fill="#393939"/><path d="M228.551 231.013l17.193 173.285c.256 2.581-1.517 4.837-3.946 5.014l-83.77 7.032c-5.107.18-7.862-2.577-8.14-5.308L131.26 227.614c-.28-2.756 2.271-5.194 7.43-5.089l84.912 3.587c2.467.093 4.691 2.299 4.949 4.901z" fill="#212121"/><path d="M232.359 230.794l17.266 174.178c.257 2.594-1.523 4.862-3.962 5.041l-86.849 6.38c-2.711.199-5.164-1.883-5.443-4.628L134.66 227.37c-.281-2.77 1.749-4.951 4.504-4.847l88.225 3.344c2.478.094 4.711 2.311 4.97 4.927z" fill="#494949"/><path d="M230.531 240.403l16.013 161.437c.24 2.424-1.426 4.539-3.709 4.702l-81.686 5.818c-2.522.18-4.802-1.764-5.062-4.32l-17.27-170.318c-.261-2.577 1.624-4.62 4.183-4.538l82.885 2.644c2.315.073 4.404 2.132 4.646 4.575z" fill="#FFEDD8"/><path d="M186.597 229.727c.093.932-.563 1.663-1.467 1.632-.905-.031-1.715-.812-1.809-1.746-.093-.933.565-1.664 1.47-1.631.905.032 1.713.813 1.806 1.745z" fill="#fff"/><path d="M178.863 276.621c-9.764 5.092-13.944 16.412-9.337 25.286 4.608 8.873 16.258 11.939 26.022 6.848l-16.685-32.134zm16.685 32.133l-16.685-32.134a9.266 9.266 0 017.076-.619 9.284 9.284 0 015.44 4.576l8.118 15.634a9.309 9.309 0 01.618 7.091 9.304 9.304 0 01-4.567 5.452zm6.985 14.478c-9.764 5.092-13.944 16.413-9.337 25.286 4.608 8.874 16.258 11.939 26.022 6.848l-16.685-32.134z" fill="#EE6E23"/><path d="M219.217 355.365l-16.685-32.133a9.26 9.26 0 0110.25 1.126 9.285 9.285 0 012.266 2.831l8.118 15.634a9.319 9.319 0 01.618 7.09 9.292 9.292 0 01-4.567 5.452zm-14.126-9.817l-10.155 5.295c-12.977-12.662-21.746-29.549-26.306-50.663l10.155-5.295 26.306 50.663z" fill="#EE6E23"/><path d="M178.555 314.748c-8.631-25.557 6.392-38.433-2.116-62.105-4.629-12.88-13.895-22.475-24.089-29.62l-13.186-.5c-2.755-.104-4.785 2.077-4.504 4.847l18.711 184.395c.279 2.745 2.732 4.827 5.443 4.628l74.981-5.508c-.235-19.254-5.116-32.957-10.545-42.698-14.916-26.767-35.757-26.974-44.695-53.439z" fill="#000" opacity=".3"/><defs><linearGradient id="paint0_linear_2127_498" x1="109995" y1="123075" x2="187726" y2="123075" gradientUnits="userSpaceOnUse"><stop stop-color="#FF9085"/><stop offset="1" stop-color="#FB6FBB"/></linearGradient><linearGradient id="paint1_linear_2127_498" x1="27609.5" y1="-13562.2" x2="25668.1" y2="-12054.4" gradientUnits="userSpaceOnUse"><stop stop-color="#444B8C"/><stop offset=".996" stop-color="#3E4177"/></linearGradient><linearGradient id="paint2_linear_2127_498" x1="68989.1" y1="-39026.9" x2="29698.2" y2="-11141.6" gradientUnits="userSpaceOnUse"><stop stop-color="#444B8C"/><stop offset=".996" stop-color="#3E4177"/></linearGradient><linearGradient id="paint3_linear_2127_498" x1="423156" y1="343083" x2="537629" y2="721129" gradientUnits="userSpaceOnUse"><stop stop-color="#FFC444"/><stop offset=".996" stop-color="#F36F56"/></linearGradient></defs></svg>