<svg width="19" height="18" viewBox="0 0 19 18" fill="none" xmlns="http://www.w3.org/2000/svg">
<path d="M18.2188 9.25C18.2188 4.46875 14.2812 0.53125 9.5 0.53125C4.68359 0.53125 0.78125 4.46875 0.78125 9.25C0.78125 14.0664 4.68359 17.9688 9.5 17.9688C14.2812 17.9688 18.2188 14.0664 18.2188 9.25ZM8.48047 13.8906C8.26953 14.1016 7.88281 14.1016 7.67188 13.8906L4.01562 10.2344C3.80469 10.0234 3.80469 9.63672 4.01562 9.42578L4.82422 8.65234C5.03516 8.40625 5.38672 8.40625 5.59766 8.65234L8.09375 11.1133L13.3672 5.83984C13.5781 5.59375 13.9297 5.59375 14.1406 5.83984L14.9492 6.61328C15.1602 6.82422 15.1602 7.21094 14.9492 7.42188L8.48047 13.8906Z" fill="#4A4A4A"/>
</svg>
