<svg width="456" height="417" viewBox="0 0 456 417" fill="none" xmlns="http://www.w3.org/2000/svg">
<path d="M133.073 28.8128C119.209 48.702 135.465 80.9472 114.893 95.9055C94.8683 110.466 70.2685 86.5992 51.3965 99.133C23.4009 117.726 28.5134 202.805 69.4445 255.667C81.7539 271.564 92.0391 277.749 96.5944 295.728C106.376 334.334 71.9988 357.299 78.5407 376.392C93.2708 419.384 319.808 455.459 410.704 326.255C453.157 265.911 459.509 178.773 421.579 112.592C353.04 -6.99612 164.181 -15.8147 133.073 28.8128Z" fill="#F2F4F4"/>
<path d="M290.335 360.063C318.735 360.255 354.943 356.44 389.62 340.721C398.47 336.71 453.139 311.929 446.682 286.977C444.408 278.187 436.47 276.799 433.224 265.101C429.378 251.239 438.061 244.315 444.081 227.039C447.672 216.731 458.184 186.564 440.149 169.86C429.371 159.879 408.888 155.157 393.297 158.805C370.428 164.155 362.566 186.463 349.914 224.438C338.698 258.102 341.58 266.366 333.082 290.466C326.775 308.352 314.899 332.978 290.335 360.063Z" fill="#B3CEE0"/>
<path opacity="0.5" d="M218.991 375.6C202.543 375.6 185.711 373.32 168.63 368.762L168.974 367.463C200.054 375.755 230.295 376.458 258.86 369.552C296.909 360.353 329.915 337.509 356.959 301.657C385.131 264.31 399.779 222.207 407.106 193.463C412.176 173.575 411.197 151.552 404.197 128.005L405.482 127.621C412.553 151.405 413.537 173.669 408.405 193.796C401.048 222.659 386.336 264.943 358.03 302.468C330.794 338.575 297.534 361.585 259.174 370.859C246.014 374.029 232.525 375.62 218.991 375.6Z" fill="white"/>
<path opacity="0.5" d="M387.91 250.897L387.531 250.427C387.451 250.328 379.473 240.366 373.029 225.161C367.074 211.109 361.238 189.565 367.248 166.723L368.545 167.066C357.898 207.53 384.701 244.506 388.203 249.104C448.32 209.881 447.725 165.064 446.101 152.234C446.057 151.883 446.034 151.663 446.035 151.582L446.706 151.588L447.376 151.583C447.38 151.657 447.401 151.819 447.433 152.065C449.085 165.128 449.714 210.839 388.416 250.568L387.91 250.897Z" fill="white"/>
<path opacity="0.5" d="M380.953 303.863C373.225 303.84 365.509 303.252 357.866 302.102L357.511 302.05L357.358 301.725C357.193 301.378 340.957 266.439 344.518 218.939L348.108 171.068L349.446 171.169L345.856 219.04C342.505 263.736 356.8 297.198 358.422 300.825C378.737 303.773 407.997 304.26 432.759 290.084C447.646 281.561 453.92 271.627 453.982 271.527L455.121 272.236C454.865 272.652 448.651 282.512 433.501 291.207C422.678 297.419 405.524 303.863 380.953 303.863Z" fill="white"/>
<path d="M262.171 283.198C239.859 304.183 208.448 327.725 169.549 340.732C159.622 344.052 98.2974 364.559 85.1709 340.092C80.5471 331.473 85.8088 324.553 79.8276 312.922C72.7405 299.14 60.8168 300.034 43.4361 290.789C33.0653 285.273 2.71461 269.129 4.76864 242.692C5.99621 226.894 18.7396 208.135 33.7304 199.583C55.7185 187.039 78.2326 198.911 115.98 219.659C149.442 238.051 153.202 246.699 177.528 259.522C195.582 269.038 222.963 279.799 262.171 283.198Z" fill="#CFE0ED"/>
<path opacity="0.5" d="M244.401 301.083C225.396 301.083 205.692 298.215 185.289 292.479C136.632 278.774 96.5354 252.115 71.4673 232.165C54.0061 218.268 40.3945 198.552 31.0107 173.564L31.9606 173.205C41.2789 198.019 54.7835 217.587 72.0989 231.368C97.0942 251.261 137.069 277.841 185.564 291.499C232.135 304.616 275.361 302.659 314.041 285.683C343.076 272.941 368.598 252.565 389.896 225.124L390.698 225.748C369.294 253.325 343.64 273.804 314.449 286.615C292.481 296.256 269.055 301.083 244.401 301.083Z" fill="white"/>
<path opacity="0.5" d="M109.871 268.383C43.1589 268.383 17.4696 233.32 10.8953 221.904C10.7535 221.658 10.6638 221.498 10.6191 221.436L11.4238 220.816C11.5512 221.002 11.6684 221.196 11.7748 221.395C18.7471 233.503 47.4863 272.496 124.853 266.8C124.875 264.29 124.767 251.756 120.889 236.417C116.906 220.667 108.018 198.648 88.29 183.194L88.9156 182.393C108.879 198.031 117.861 220.283 121.88 236.196C126.232 253.424 125.865 267.152 125.861 267.289L125.846 267.746L125.391 267.78C119.99 268.19 114.817 268.39 109.871 268.383Z" fill="white"/>
<path opacity="0.5" d="M173.962 303.2C97.6678 321.886 58.4837 288.982 47.7728 277.768C47.5418 277.526 47.3945 277.368 47.3262 277.31L48.0729 276.375C48.2708 276.553 48.4589 276.741 48.6363 276.94C59.9958 288.833 103.767 325.378 190.654 297.194C189.977 294.318 186.349 280.013 177.624 263.557C168.665 246.66 152.343 223.968 125.46 211.82L125.951 210.728C153.155 223.02 169.649 245.953 178.696 263.027C188.49 281.51 191.909 297.313 191.943 297.471L192.055 297.997L191.544 298.164C185.481 300.145 179.621 301.823 173.962 303.2Z" fill="white"/>
<path d="M286.172 300.159C269.676 289.96 247.105 272.534 232.76 244.311C213.947 207.298 225.814 184.233 210.533 118.188C200.87 76.4281 193.707 47.3824 169.401 36.0232C150.352 27.1217 123.057 30.1473 109.103 44.846C97.5013 57.0675 93.7654 78.7899 94.296 93.6432C94.7285 105.749 98.018 113.931 92.5359 121.473C86.9332 129.18 78.7782 127.127 73.2906 133.109C62.1618 145.239 76.0894 175.059 78.3403 179.879C103.38 233.49 162.945 260.942 189.071 272.603C210.673 282.245 243.504 294.268 286.172 300.159Z" fill="#FEB58A"/>
<path opacity="0.5" d="M304.128 307.27C278.118 303.001 255.111 296.272 235.747 287.272C207.088 273.95 187.273 255.974 176.851 233.843C168.7 216.533 166.34 196.449 163.353 171.022C160.876 149.943 161.018 134.793 161.144 121.426C161.306 104.097 161.434 90.4088 155.643 71.8338C149.758 52.9628 139.521 35.0924 125.217 18.719L125.98 18.0488C140.379 34.5294 150.685 52.5232 156.611 71.5304C162.45 90.2582 162.321 104.017 162.158 121.435C162.033 134.772 161.892 149.888 164.361 170.903C167.454 197.228 169.688 216.249 177.769 233.409C188.087 255.319 207.737 273.13 236.174 286.349C255.455 295.311 278.373 302.012 304.292 306.266L304.128 307.27Z" fill="white"/>
<path opacity="0.5" d="M162.211 156.054L161.941 155.547C143.171 120.31 118.38 100.925 100.888 90.8677C81.95 79.9796 67.2864 77.3871 67.1406 77.3622L67.3112 76.3591C67.4589 76.3844 82.3005 79.008 101.393 89.9852C118.914 100.059 143.71 119.427 162.56 154.549C164.905 152.781 175.727 144.177 185.273 129.247C195.157 113.788 205.657 88.18 199.547 53.9801L200.547 53.8008C206.718 88.3447 196.099 114.214 186.104 129.833C175.275 146.755 162.806 155.636 162.681 155.723L162.211 156.054Z" fill="white"/>
<path opacity="0.5" d="M170.398 212.662L170.03 212.631C146.02 210.588 116.511 184.389 95.9835 162.77C73.7848 139.391 57.0143 116.19 56.8477 115.959L57.6706 115.363C57.8372 115.594 74.5736 138.747 96.7267 162.077C117.026 183.454 146.126 209.335 169.751 211.584C171.008 208.663 180.224 187.639 193.326 168.202C207.436 147.268 247.27 132.906 247.671 132.763L248.011 133.722C247.613 133.863 208.09 148.116 194.167 168.771C180.177 189.527 170.636 212.096 170.541 212.321L170.398 212.662Z" fill="white"/>
<g style="mix-blend-mode:soft-light" opacity="0.5">
<g style="mix-blend-mode:soft-light" opacity="0.5">
<path d="M227.363 257.611C214.824 257.587 202.301 256.727 189.875 255.036C163.452 251.448 124.905 242.262 91.3207 218.879L26.4668 173.725L27.0458 172.889L91.8997 218.044C125.31 241.305 163.68 250.449 189.986 254.024C214.959 257.418 234.078 256.572 238.584 256.298C230.716 247.066 226.426 236.628 225.833 225.258C225.346 215.921 227.338 205.947 231.753 195.613C239.255 178.055 251.341 165.351 251.462 165.225L252.194 165.93C252.074 166.055 240.101 178.645 232.676 196.038C228.327 206.225 226.366 216.043 226.848 225.219C227.449 236.669 231.88 247.159 240.018 256.4L240.687 257.16L239.679 257.243C239.582 257.251 235.044 257.611 227.363 257.611Z" fill="white"/>
</g>
</g>
<path d="M287.83 293.451C285.987 290.94 274.9 276.31 257.352 275.701C242.662 275.191 231.428 284.785 228.826 287.007C218.347 295.955 219.558 303.093 211.094 305.99C201.043 309.431 193.829 301.251 187.33 305.973C182.846 309.231 181.532 316.572 183.35 321.691C186.541 330.677 200.139 334.959 210.452 332.81C224.659 329.851 224.98 316.279 241.112 311.919C250.486 309.386 253.217 313.202 263.188 310.753C274.768 307.911 282.804 299.888 287.83 293.451Z" fill="url(#paint0_linear_2127_498)"/>
<g style="mix-blend-mode:soft-light" opacity="0.5">
<g style="mix-blend-mode:soft-light" opacity="0.5">
<path d="M207.127 319.519C198.411 319.519 187.797 315.162 175.437 306.489L175.728 306.072C192.286 317.69 205.64 321.51 215.419 317.429C221.582 314.857 224.635 310.007 227.868 304.873C231.505 299.095 235.266 293.121 243.801 290.269C250.365 288.077 257.966 289.126 273.111 291.218C280.687 292.265 288.193 293.768 295.589 295.72L295.459 296.212C288.084 294.265 280.598 292.766 273.042 291.722C257.975 289.641 250.412 288.597 243.962 290.752C235.599 293.546 231.887 299.442 228.297 305.144C225.021 310.349 221.925 315.265 215.614 317.899C213.025 318.979 210.195 319.519 207.127 319.519Z" fill="white"/>
</g>
<g style="mix-blend-mode:soft-light" opacity="0.5">
<path d="M189.783 334.246L189.668 333.75C207.656 329.566 212.538 319.426 212.972 318.442C211.358 312.872 206.646 308.164 202.967 305.189C200.542 303.225 197.948 301.48 195.217 299.975L195.452 299.523C195.6 299.601 210.375 307.426 213.485 318.389L213.509 318.471L213.477 318.551C213.433 318.663 208.861 329.808 189.783 334.246Z" fill="white"/>
</g>
<g style="mix-blend-mode:soft-light" opacity="0.5">
<path d="M230.72 328.412C228.911 322.964 230.546 314.899 235.577 304.443C237.914 299.638 240.575 294.999 243.542 290.557C235.418 283.923 215.551 299.676 215.35 299.837L215.033 299.44C215.085 299.399 220.229 295.299 226.32 292.139C234.569 287.859 240.534 287.247 244.049 290.32L244.22 290.469L244.09 290.656C243.918 290.904 226.983 315.54 231.202 328.252L230.72 328.412Z" fill="white"/>
</g>
<g style="mix-blend-mode:soft-light" opacity="0.5">
<path d="M248.323 320.811C243.537 302.408 268.154 292.254 271.093 291.115C262.649 276.522 241.559 273.76 241.346 273.734L241.408 273.229C241.625 273.255 263.214 276.085 271.682 291.123L271.83 291.386L271.547 291.487C271.269 291.587 243.869 301.668 248.813 320.683L248.323 320.811Z" fill="white"/>
</g>
</g>
<path d="M369.478 54.4088C366.727 45.4852 362.431 41.1698 359.158 38.8887C352.145 34.0014 342.64 33.4428 342.905 31.5702C343.02 30.7583 344.9 30.2044 345.462 30.0386C348.214 29.228 349.754 30.6208 351.285 29.7039C352.427 29.0203 352.736 27.5477 352.963 26.3946C354.11 20.5577 350.748 13.3749 348.961 8.10839C348.837 7.74132 348.556 6.89417 348.832 6.69326C349.13 6.47658 349.921 7.12239 350.188 7.34028C353.031 9.66111 356.581 20.0219 356.577 20.023C356.576 20.0234 356.582 18.8352 355.512 15.4551C353.649 9.56586 351.624 6.8334 351.801 2.16162C351.836 1.24913 351.873 0.428431 352.189 0.334864C353.784 -0.138669 359.517 18.8939 360.577 18.5425C360.843 18.4544 360.695 17.185 360.621 16.5529C359.931 10.6501 356.689 8.88715 356.964 4.11632C357.007 3.36561 357.071 2.27042 357.48 2.15455C358.856 1.76561 362.506 12.8899 364.318 17.9786C368.065 28.5394 371.079 39.3473 373.337 50.325C372.051 51.6863 370.764 53.0475 369.478 54.4088Z" fill="#FEB3B1"/>
<path d="M252.259 39.9987C247.187 38.411 245.826 32.5279 245.288 30.2028C244.017 24.7055 244.51 15.2148 250.256 12.5834C254.871 10.4695 260.028 14.0875 260.667 14.5497C267.17 19.2519 265.949 28.2593 265.806 29.2016C265.485 31.3131 264.824 35.6696 261.001 38.3776C260.731 38.5687 256.645 41.3718 252.259 39.9987Z" fill="#424242"/>
<g style="mix-blend-mode:multiply" opacity="0.3">
<path style="mix-blend-mode:multiply" opacity="0.3" d="M258.979 26.469C255.617 23.1301 250.865 24.5914 248.861 21.5527C247.86 20.0352 247.603 17.4752 249.623 12.918C244.478 15.938 244.066 24.9158 245.289 30.2028C245.826 32.528 247.187 38.4111 252.259 39.9988C256.645 41.3719 260.732 38.5687 261.001 38.3776C261.169 38.2586 261.329 38.1355 261.485 38.0106C262.046 33.6403 261.725 29.1961 258.979 26.469Z" fill="url(#paint1_linear_2127_498)"/>
</g>
<path d="M248.25 156.985C248.25 156.985 227.837 93.3644 227.906 69.4292C227.975 45.4941 248.808 36.1918 258.058 33.9794C267.303 31.7681 286.915 34.2007 292.952 61.146C298.986 88.0828 294.63 148.477 294.63 148.477L248.25 156.985Z" fill="#424242"/>
<g style="mix-blend-mode:soft-light" opacity="0.3">
<path d="M265.195 92.9283C279.901 91.1261 283.16 77.212 296.679 75.6032C298.143 75.4295 299.622 75.4149 301.089 75.5598C300.886 72.9207 300.633 70.3823 300.324 67.9825C298.684 67.7773 297.025 67.7716 295.383 67.9656C281.864 69.5718 278.604 83.4858 263.897 85.285C251.902 86.7526 246.551 78.4202 236.4 82.046C233.786 82.9801 231.576 84.4505 229.715 86.1524C230.137 88.5715 230.625 91.0872 231.164 93.6661C233.063 91.9274 235.284 90.5782 237.7 89.6948C247.85 86.0671 253.2 94.3982 265.195 92.9283Z" fill="#37383A"/>
</g>
<path style="mix-blend-mode:multiply" opacity="0.8" d="M266.451 117.321C255.451 118.582 250.42 110.185 241.146 113.629C239.46 114.265 237.89 115.174 236.498 116.32C242.052 137.67 248.249 156.984 248.249 156.984L294.629 148.477C294.629 148.477 296.336 124.81 296.133 100.502C295.792 100.52 295.461 100.547 295.141 100.583C282.741 101.957 279.938 115.774 266.451 117.321Z" fill="#979797"/>
<path style="mix-blend-mode:multiply" opacity="0.3" d="M291.109 76.8111C278.706 78.178 275.903 91.9948 262.413 93.533C251.41 94.7875 246.379 86.3869 237.103 89.8255C234.777 90.6877 232.81 92.0626 231.151 93.6699C232.652 100.965 234.535 108.769 236.499 116.319C237.891 115.174 239.462 114.265 241.148 113.629C250.422 110.185 255.452 118.582 266.452 117.32C279.939 115.774 282.743 101.957 295.143 100.582C295.462 100.547 292.31 76.6788 291.109 76.8111Z" fill="#515356"/>
<path d="M185.987 202.071C177.038 190.387 189.352 163.935 202.869 149.032C218.594 131.694 238.726 126.922 251.499 124.073C293.777 114.643 307.341 133.81 328.681 122.816C361.784 105.762 354.52 46.4904 369.478 44.8527C381.76 43.5078 401.112 81.9073 395.769 119.988C391.623 149.536 363.58 178.602 335.268 191.543C314.728 200.932 317.847 198.439 271.079 201.147C216.868 204.285 194.809 213.588 185.987 202.071Z" fill="#EE6E23"/>
<path d="M236.816 127.75C245.493 124.617 259.68 123.909 259.531 92.8358C259.531 92.8358 277.504 91.6967 278.186 91.9221C278.83 92.1353 273.424 122.959 298.541 122.749C300.249 122.735 300.698 125.141 299.327 126.23C294.785 129.836 284.541 135.42 269.372 135.597C259.771 135.709 248.818 137.866 236.765 131.507C235.114 130.636 234.995 128.408 236.816 127.75Z" fill="#FEAEAB"/>
<path d="M298.313 186.503C293.227 186.567 294.991 143.498 279.777 80.2696C276.621 67.154 273.526 56.461 271.336 49.2782C276.744 48.5843 282.151 47.8907 287.556 47.1973C296.951 65.2915 310.943 98.9607 308.279 142.589C307.026 163.102 302.054 186.456 298.313 186.503Z" fill="url(#paint2_linear_2127_498)"/>
<path d="M298.313 186.503C293.227 186.567 294.991 143.498 279.777 80.2696C276.621 67.154 273.526 56.461 271.336 49.2782C276.744 48.5843 282.151 47.8907 287.556 47.1973C296.951 65.2915 310.943 98.9607 308.279 142.589C307.026 163.102 302.054 186.456 298.313 186.503Z" fill="#424242"/>
<path d="M241.833 74.5746C242.521 78.6248 245.702 108.672 268.562 103.706C289.44 99.171 283.944 77.9276 281.491 67.1979C281.491 67.1979 278.881 57.6434 271.377 56.3906C271.377 56.3906 278.833 60.5608 280.779 72.6404C280.779 72.6404 278.066 66.5594 262.712 69.6567C247.346 72.7564 245.31 80.3191 245.31 80.3191C245.31 80.3191 240.628 69.288 247.404 61.5689C247.404 61.569 242.162 64.4684 241.833 74.5746Z" fill="#FC9F9D"/>
<g style="mix-blend-mode:multiply" opacity="0.3">
<path style="mix-blend-mode:multiply" opacity="0.3" d="M390.735 71.6387C393.598 88.2917 390.527 99.0478 386.048 106.288C375.963 122.592 358.132 122.092 336.179 147.827C323.89 162.233 323.093 169.874 315.454 180.928C311.947 186.002 307.365 191.263 301.244 196.34C317.746 196.801 320.937 198.094 335.268 191.543C363.58 178.602 391.623 149.536 395.768 119.988C398.196 102.684 395.525 85.3152 390.735 71.6387Z" fill="#848484"/>
</g>
<path d="M396.045 199.468L108.003 189.51C106.56 189.46 105.122 189.702 103.775 190.221C102.427 190.74 101.197 191.526 100.159 192.531C99.1204 193.536 98.2946 194.741 97.7306 196.073C97.1666 197.404 96.876 198.837 96.876 200.283V386.323C96.876 387.806 97.1815 389.274 97.7736 390.634C98.3656 391.993 99.2313 393.216 100.317 394.225C101.402 395.234 102.683 396.008 104.08 396.498C105.478 396.987 106.961 397.183 108.437 397.072L396.479 375.416C399.184 375.212 401.714 373.991 403.559 371.998C405.405 370.004 406.43 367.386 406.43 364.666V210.241C406.43 207.447 405.347 204.761 403.41 202.751C401.472 200.742 398.832 199.564 396.045 199.468V199.468Z" fill="#737373"/>
<path d="M400.996 199.468L112.954 189.51C111.511 189.46 110.073 189.702 108.726 190.221C107.378 190.74 106.148 191.526 105.11 192.531C104.072 193.536 103.246 194.741 102.682 196.073C102.118 197.404 101.827 198.837 101.827 200.283V386.323C101.827 387.806 102.133 389.274 102.725 390.634C103.317 391.993 104.182 393.216 105.268 394.225C106.353 395.234 107.634 396.008 109.032 396.498C110.429 396.987 111.912 397.183 113.388 397.072L401.43 375.416C404.136 375.212 406.665 373.991 408.51 371.998C410.356 370.004 411.382 367.386 411.382 364.666V210.241C411.382 207.447 410.299 204.761 408.361 202.751C406.423 200.742 403.783 199.564 400.996 199.468V199.468Z" fill="url(#paint3_linear_2127_498)"/>
<path d="M287.909 302.92L408.604 203.026C407.64 201.95 406.47 201.081 405.162 200.469C403.855 199.857 402.438 199.516 400.996 199.467L112.955 189.509C110.327 189.414 107.757 190.292 105.733 191.975L267.084 303.81C270.178 305.955 273.887 307.029 277.646 306.868C281.405 306.707 285.008 305.321 287.909 302.92V302.92Z" fill="#8A8A8A"/>
<path d="M287.909 302.922C285.008 305.323 281.404 306.709 277.645 306.87C273.887 307.03 270.178 305.957 267.084 303.812L105.733 191.977C104.51 192.986 103.526 194.255 102.851 195.691C102.175 197.127 101.826 198.695 101.827 200.283V386.323C101.827 387.806 102.133 389.274 102.725 390.634C103.317 391.993 104.182 393.216 105.268 394.225C106.353 395.234 107.634 396.008 109.032 396.497C110.429 396.987 111.912 397.183 113.388 397.072L401.43 375.415C404.136 375.212 406.665 373.991 408.51 371.998C410.356 370.004 411.381 367.386 411.382 364.666V210.241C411.382 207.574 410.392 205.003 408.604 203.028L287.909 302.922Z" fill="#D2D2D2"/>
<g opacity="0.37">
<path d="M408.604 203.028L287.909 302.922C285.008 305.323 281.404 306.709 277.645 306.87C273.887 307.03 270.178 305.957 267.084 303.812L105.733 191.977C104.51 192.986 103.526 194.255 102.851 195.691C102.175 197.127 101.826 198.695 101.827 200.283V227.72C107.657 225.265 112.59 224.794 116.599 225.13C127.684 226.058 130.331 232.993 151.557 243.003C171.403 252.364 173.485 248.374 182.234 255.157C199.089 268.226 191.718 283.309 206.49 297.339C221.873 311.949 235.146 300.609 257.143 314.498C280.388 329.175 272.947 346.498 292.101 356.68C318.936 370.945 346.339 343.745 369.15 358.109C376.047 362.453 380.457 369.297 383.3 376.779L401.43 375.415C404.136 375.212 406.665 373.991 408.51 371.998C410.356 370.004 411.381 367.385 411.382 364.666V210.241C411.382 207.574 410.392 205.003 408.604 203.028Z" fill="white" fill-opacity="0.78" style="mix-blend-mode:multiply"/>
</g>
<path style="mix-blend-mode:multiply" opacity="0.3" d="M131.26 227.613V395.727L151.166 413.878L188.504 383.917L131.26 227.613Z" fill="#393939"/>
<path d="M228.551 231.013L245.744 404.298C246 406.879 244.227 409.135 241.798 409.312L158.028 416.344C152.921 416.524 150.166 413.767 149.888 411.036L131.26 227.614C130.98 224.858 133.531 222.42 138.69 222.525L223.602 226.112C226.069 226.205 228.293 228.411 228.551 231.013Z" fill="#212121"/>
<path d="M232.359 230.794L249.625 404.972C249.882 407.566 248.102 409.834 245.663 410.013L158.814 416.393C156.103 416.592 153.65 414.51 153.371 411.765L134.66 227.37C134.379 224.6 136.409 222.419 139.164 222.523L227.389 225.867C229.867 225.961 232.1 228.178 232.359 230.794Z" fill="#494949"/>
<path d="M230.531 240.403L246.544 401.84C246.784 404.264 245.118 406.379 242.835 406.542L161.149 412.36C158.627 412.54 156.347 410.596 156.087 408.04L138.817 237.722C138.556 235.145 140.441 233.102 143 233.184L225.885 235.828C228.2 235.901 230.289 237.96 230.531 240.403Z" fill="#FFEDD8"/>
<path d="M186.597 229.727C186.69 230.659 186.034 231.39 185.13 231.359C184.225 231.328 183.415 230.547 183.321 229.613C183.228 228.68 183.886 227.949 184.791 227.982C185.696 228.014 186.504 228.795 186.597 229.727Z" fill="white"/>
<path d="M178.863 276.621C169.099 281.713 164.919 293.033 169.526 301.907C174.134 310.78 185.784 313.846 195.548 308.755L178.863 276.621Z" fill="#EE6E23"/>
<path d="M195.548 308.754L178.863 276.62C181.047 275.482 183.592 275.259 185.939 276.001C188.286 276.743 190.243 278.389 191.379 280.577L199.497 296.211C200.06 297.295 200.404 298.478 200.51 299.695C200.616 300.912 200.481 302.137 200.115 303.302C199.748 304.467 199.156 305.548 198.373 306.483C197.589 307.418 196.629 308.19 195.548 308.754V308.754Z" fill="#EE6E23"/>
<path d="M202.533 323.232C192.769 328.324 188.589 339.645 193.196 348.518C197.804 357.392 209.454 360.457 219.218 355.366L202.533 323.232Z" fill="#EE6E23"/>
<path d="M219.217 355.365L202.532 323.232C203.613 322.668 204.795 322.323 206.009 322.217C207.223 322.111 208.446 322.245 209.608 322.613C210.77 322.98 211.849 323.573 212.782 324.358C213.716 325.144 214.486 326.105 215.048 327.189L223.166 342.823C224.302 345.011 224.524 347.561 223.784 349.913C223.043 352.266 221.401 354.227 219.217 355.365V355.365Z" fill="#EE6E23"/>
<path d="M205.091 345.548L194.936 350.843C181.959 338.181 173.19 321.294 168.63 300.18L178.785 294.885L205.091 345.548Z" fill="#EE6E23"/>
<g style="mix-blend-mode:soft-light" opacity="0.3">
<path d="M178.555 314.748C169.924 289.191 184.947 276.315 176.439 252.643C171.81 239.763 162.544 230.168 152.35 223.023L139.164 222.523C136.409 222.419 134.379 224.6 134.66 227.37L153.371 411.765C153.65 414.51 156.103 416.592 158.814 416.393L233.795 410.885C233.56 391.631 228.679 377.928 223.25 368.187C208.334 341.42 187.493 341.213 178.555 314.748Z" fill="black"/>
</g>
<defs>
<linearGradient id="paint0_linear_2127_498" x1="109995" y1="123075" x2="187726" y2="123075" gradientUnits="userSpaceOnUse">
<stop stop-color="#FF9085"/>
<stop offset="1" stop-color="#FB6FBB"/>
</linearGradient>
<linearGradient id="paint1_linear_2127_498" x1="27609.5" y1="-13562.2" x2="25668.1" y2="-12054.4" gradientUnits="userSpaceOnUse">
<stop stop-color="#444B8C"/>
<stop offset="0.9964" stop-color="#3E4177"/>
</linearGradient>
<linearGradient id="paint2_linear_2127_498" x1="68989.1" y1="-39026.9" x2="29698.2" y2="-11141.6" gradientUnits="userSpaceOnUse">
<stop stop-color="#444B8C"/>
<stop offset="0.9964" stop-color="#3E4177"/>
</linearGradient>
<linearGradient id="paint3_linear_2127_498" x1="423156" y1="343083" x2="537629" y2="721129" gradientUnits="userSpaceOnUse">
<stop stop-color="#FFC444"/>
<stop offset="0.9964" stop-color="#F36F56"/>
</linearGradient>
</defs>
</svg>
